# xmcd
#
# Track frame offsets:
#	150
#	14607
#	29489
#	46542
#	66045
#	79752
#	98845
#	118681
#	135171
#	148470
#	166398
#	181514
#
# Disc length: 2646 seconds
#
# Revision: 4
# Processed by: cddbd v1.5.2PL0 Copyright (c) Steve Scherf et al.
# Submitted via: audiograbber 1.83.01
#
DISCID=970a540c
DTITLE=Stefan Gwildis - Wünscht, du wärst hier
DYEAR=2008
DGENRE=Soul
TTITLE0=Wenn es weg ist (Big Yellow Taxi)
TTITLE1=Ich bin Soulfan (Soul Man)
TTITLE2=Wünscht, du wärst hier
TTITLE3=Gestern war gestern (Walking In Memphis)
TTITLE4=Du gehst mir nicht mehr aus dem Sinn
TTITLE5=Keines Menschen Auge (Caruso)
TTITLE6=Regennacht in Hamburg (Rainy Night In Georgia)
TTITLE7=Wo bist du grad?
TTITLE8=Lass den Dingen ihren Lauf (Spinning Wheel)
TTITLE9=Muhammad Ali
TTITLE10=Wenn es dich glücklich macht
TTITLE11=Wundervolles Wunder
EXTD=YEAR: 2008
EXTT0=
EXTT1=
EXTT2=
EXTT3=
EXTT4=
EXTT5=
EXTT6=
EXTT7=
EXTT8=
EXTT9=
EXTT10=
EXTT11=
PLAYORDER=
